<svg version="1" xmlns="http://www.w3.org/2000/svg" width="1653.333" height="1653.333" viewBox="0 0 1240.000000 1240.000000"><path d="M307.4 158.1c-9.1 9.3-189.2 188.3-195.6 194.5-3.2 3.1-5.8 5.9-5.8 6.4s-.4 1-1 1.2c-.5.1-24.4 23.6-53 52.1L0 464l17.3 17.6c9.4 9.7 18 18.4 19 19.3 1 .9 5.5 5.4 10 9.9 4.5 4.6 22.6 23 40.2 40.8 17.6 17.8 32 32.4 32 32.4s17.2 17.4 38.3 38.7C240.1 707 292.2 759.8 306 774.1c17 17.5 82.9 84 215.8 217.6 74.8 75.2 96.2 96.3 98.2 96.3 2.3 0 7.5-5 109.7-108.2 7-7.1 13-12.8 13.5-12.8.4 0 .8-.4.8-.8s24.4-25.4 54.3-55.5c98.2-99 120.2-121.2 121.5-122.9 1.1-1.4.7-1.6-3.8-1.3-2.8.2-5.2 0-5.4-.4-.3-.4 2.3-.7 5.7-.6l6.1.1 13.5-13.7c7.5-7.6 36.6-37.1 64.8-65.6 28.2-28.5 65.7-66.5 83.5-84.5 29.7-30.2 121.5-123 145.6-147.4L1240 464l-45.8-46c-25.1-25.3-45.7-46-45.7-46s-44-44.2-97.7-98.2C997 219.7 953 175.5 953 175.4l-11.7-11.7-11.8-11.7H797.3c-72.8 0-132.3.2-132.3.5s13.5 14.1 30 30.8c16.6 16.6 62.7 63 102.5 103.2 39.8 40.1 96.5 97.3 125.9 127 29.5 29.6 53.6 54.2 53.6 54.5 0 .5-21.8 21.9-72.8 71.5-9.6 9.3-19.8 19.3-22.6 22.1l-5.1 5.2-17.5-17.4c-9.6-9.5-49.3-49-88.3-87.6-38.9-38.7-70.7-70.1-70.7-69.8 0 .3-.9-.9-2-2.5-1.1-1.7-2-2.7-2-2.4 0 .3-3.4-2.8-7.5-6.9-4.1-4.1-7.5-7.9-7.5-8.3 0-.5-.4-.9-.8-.9-.5 0-14-13.1-30-29-16-16-29.7-29-30.3-29-.7 0-4.6 3.3-8.8 7.4-12.9 12.7-30.3 29.4-47.7 46.1-9.2 8.8-21.2 20.4-26.7 25.7-5.4 5.4-10 9.8-10.1 9.8-.1 0-5.2 4.8-11.3 10.7-10.3 10.1-40.9 39.6-56.2 54.3-13 12.4-48.4 46.6-58.9 56.7-5.8 5.7-10.6 10.3-10.7 10.3-.1 0-5.1 4.8-11.1 10.6-6 5.9-12.8 12.4-15.1 14.7l-4.2 4-7.4-7.4c-6.7-6.6-24.8-24.2-75-73.1l-15.1-14.7 13.7-13.8c7.5-7.6 49-49.3 92.2-92.7 43.2-43.4 78.5-79.2 78.5-79.7 0-.4.4-.9 1-1.1 1.2-.4 15-13.7 15.1-14.6 0-.4 2.7-3 5.9-5.7 3.2-2.8 5.9-5.2 5.9-5.5.1-.3 22.8-23.3 50.6-51.2 27.8-27.9 50.5-51 50.5-51.3 0-.3-58.9-.5-130.8-.5H313.4l-6 6.1zm320.1 426.4c4.1 3.8 23.5 21.9 31.5 29.5 8.6 8.1 30 28.2 36 33.8 3.6 3.4 8.9 8.3 11.6 10.9 2.8 2.7 10.6 10 17.4 16.3 6.8 6.3 14.3 13.4 16.7 15.6l4.3 4.2-5.2 5.1c-2.8 2.8-5.5 5.1-6 5.1s-.7.4-.4.9c.4.5.2 1.1-.4 1.3-1 .3-33.9 32.2-70.5 68.3-13.3 13.2-28.4 27.9-33.4 32.7l-9.1 8.7-9.6-9.2c-5.3-5.1-12.6-12-16.2-15.5-4-3.8-7.1-6.1-8-5.7-.9.3-1.2 0-.9-.9.4-.9-6.8-8.5-20-21.3-11.3-10.9-21.3-20.6-22.2-21.7-.9-1-3.1-3.3-5-5-1.8-1.7-11.5-11.1-21.4-20.9-10-9.7-18.2-17.7-18.3-17.7-.1 0-1.8-1.6-3.7-3.5l-3.5-3.5 3.1-2.9c5.4-5 10.1-9.3 20.2-18.6 5.3-5 11.2-10.4 13-12 1.8-1.7 7.7-7.1 13.1-12.2 5.5-5 11.3-10.4 12.9-11.8 2.8-2.6 18.2-16.8 28.6-26.5 2.6-2.5 8.5-7.9 13-12s11.3-10.5 15.2-14.1l7.1-6.7 2.9 2.7c1.6 1.4 4.8 4.4 7.2 6.6zM323 786.2c0 1.1-1.2 1-3-.2-1.2-.7-1-.9.8-.7 1.2 0 2.2.5 2.2.9zm8 0c0 .4-.9.7-2 .5-2.9-.5-3.3-1.3-.5-1.3 1.4 0 2.5.4 2.5.8zm14.4-.2c.2.3-1.9.5-4.9.5-2.9 0-5.6-.2-5.9-.5-.2-.3 1.9-.5 4.9-.5 2.9 0 5.6.2 5.9.5zm3.6 0c0 .5-.2 1-.4 1-.3 0-.8-.5-1.1-1-.3-.6-.1-1 .4-1 .6 0 1.1.4 1.1 1zm8.4 0c.2.3-1.1.6-3 .6s-3.4-.3-3.4-.7c0-.7 5.6-.7 6.4.1zm3.6 0c0 .5-.2 1-.4 1-.3 0-.8-.5-1.1-1-.3-.6-.1-1 .4-1 .6 0 1.1.4 1.1 1zm10 0c0 .4-1.8.6-4 .6s-4-.3-4-.6c0-.4 1.8-.6 4-.6s4 .3 4 .6zm8 .2c0 .4-.9.7-2 .5-2.9-.5-3.3-1.3-.5-1.3 1.4 0 2.5.4 2.5.8zm6.6 0c.3.4-.1.5-1 .4-.8-.1-1.8-.5-2.2-.8-.3-.4.1-.5 1-.4.8.1 1.8.5 2.2.8zm3.4-.2c0 .5-.2 1-.4 1-.3 0-.8-.5-1.1-1-.3-.6-.1-1 .4-1 .6 0 1.1.4 1.1 1zm8.4 0c.2.3-1.1.6-3 .6s-3.4-.3-3.4-.7c0-.7 5.6-.7 6.4.1zm16 0c.3.3-2.6.5-6.4.5-3.8 0-7.1-.3-7.4-.6-.3-.3 2.6-.5 6.4-.4 3.7 0 7.1.3 7.4.5zm5.6.2c0 1.1-1.2 1-3-.2-1.2-.7-1-.9.8-.7 1.2 0 2.2.5 2.2.9zm8 0c0 .4-.9.7-2 .5-2.9-.5-3.3-1.3-.5-1.3 1.4 0 2.5.4 2.5.8zm14.4-.2c.2.3-1.9.5-4.9.5-2.9 0-5.6-.2-5.9-.5-.2-.3 1.9-.5 4.9-.5 2.9 0 5.6.2 5.9.5zm3.6 0c0 .5-.2 1-.4 1-.3 0-.8-.5-1.1-1-.3-.6-.1-1 .4-1 .6 0 1.1.4 1.1 1zm8.4 0c.2.3-1.1.6-3 .6s-3.4-.3-3.4-.7c0-.7 5.6-.7 6.4.1zm3.6 0c0 .5-.2 1-.4 1-.3 0-.8-.5-1.1-1-.3-.6-.1-1 .4-1 .6 0 1.1.4 1.1 1zm10 0c0 .4-1.8.6-4 .6s-4-.3-4-.6c0-.4 1.8-.6 4-.6s4 .3 4 .6zm8 .2c0 .4-.9.7-2 .5-2.9-.5-3.3-1.3-.5-1.3 1.4 0 2.5.4 2.5.8zm6.6 0c.3.4-.1.5-1 .4-.8-.1-1.8-.5-2.2-.8-.3-.4.1-.5 1-.4.8.1 1.8.5 2.2.8zm3.4-.2c0 .5-.2 1-.4 1-.3 0-.8-.5-1.1-1-.3-.6-.1-1 .4-1 .6 0 1.1.4 1.1 1zm8.4 0c.2.3-1.1.6-3 .6s-3.4-.3-3.4-.7c0-.7 5.6-.7 6.4.1zm16 0c.3.3-2.6.5-6.4.5-3.8 0-7.1-.3-7.4-.6-.3-.3 2.6-.5 6.4-.4 3.7 0 7.1.3 7.4.5zm12 .1c.3.3-1.7.5-4.4.4-2.7 0-5.2-.3-5.4-.6-.3-.3 1.6-.5 4.3-.5 2.7.1 5.2.4 5.5.7zm3.6-.1c0 .5-.2 1-.4 1-.3 0-.8-.5-1.1-1-.3-.6-.1-1 .4-1 .6 0 1.1.4 1.1 1zm8.4 0c.2.3-1.1.6-3 .6s-3.4-.3-3.4-.7c0-.7 5.6-.7 6.4.1zm3.6 0c0 .5-.2 1-.4 1-.3 0-.8-.5-1.1-1-.3-.6-.1-1 .4-1 .6 0 1.1.4 1.1 1zm16.3 0c.3.3-2.8.5-6.9.5-4.1.1-7.4-.2-7.4-.5 0-.7 13.6-.7 14.3 0zm3.7 0c0 .5-.2 1-.4 1-.3 0-.8-.5-1.1-1-.3-.6-.1-1 .4-1 .6 0 1.1.4 1.1 1zm8.4 0c.2.3-1.1.6-3 .6s-3.4-.3-3.4-.7c0-.7 5.6-.7 6.4.1zm3.6 0c0 .5-.2 1-.4 1-.3 0-.8-.5-1.1-1-.3-.6-.1-1 .4-1 .6 0 1.1.4 1.1 1zm8 0c0 .3-1.3.6-3 .6-1.6 0-3-.3-3-.6 0-.4 1.4-.7 3-.7 1.7 0 3 .3 3 .7zm6.4.2c-.6.9-4.4.6-4.4-.3 0-.4 1.1-.6 2.4-.5 1.3 0 2.2.4 2 .8zm71.6-.8c0 .3-.4.8-1 1.1-.5.3-1 .1-1-.4 0-.6.5-1.1 1-1.1.6 0 1 .2 1 .4zm6.4.6c.3.3-.5.6-1.9.5-1.3 0-2.6-.2-2.9-.5-.3-.3.5-.6 1.9-.5 1.3 0 2.6.2 2.9.5zm3.6 0c0 .5-.2 1-.4 1-.3 0-.8-.5-1.1-1-.3-.6-.1-1 .4-1 .6 0 1.1.4 1.1 1zm16.3 0c.3.3-2.8.5-6.9.5-4.1.1-7.4-.2-7.4-.5 0-.7 13.6-.7 14.3 0zm3.7 0c0 .5-.2 1-.4 1-.3 0-.8-.5-1.1-1-.3-.6-.1-1 .4-1 .6 0 1.1.4 1.1 1zm8.4 0c.2.3-1.1.6-3 .6s-3.4-.3-3.4-.7c0-.7 5.6-.7 6.4.1zm3.6 0c0 .5-.2 1-.4 1-.3 0-.8-.5-1.1-1-.3-.6-.1-1 .4-1 .6 0 1.1.4 1.1 1zm16.3 0c.3.3-2.8.5-6.9.5-4.1.1-7.4-.2-7.4-.5 0-.7 13.6-.7 14.3 0zm3.7 0c0 .5-.2 1-.4 1-.3 0-.8-.5-1.1-1-.3-.6-.1-1 .4-1 .6 0 1.1.4 1.1 1zm8.4 0c.2.3-1.1.6-3 .6s-3.4-.3-3.4-.7c0-.7 5.6-.7 6.4.1zm3.6 0c0 .5-.2 1-.4 1-.3 0-.8-.5-1.1-1-.3-.6-.1-1 .4-1 .6 0 1.1.4 1.1 1zm16.3 0c.3.3-2.8.5-6.9.5-4.1.1-7.4-.2-7.4-.5 0-.7 13.6-.7 14.3 0zm3.7 0c0 .5-.2 1-.4 1-.3 0-.8-.5-1.1-1-.3-.6-.1-1 .4-1 .6 0 1.1.4 1.1 1zm8.4 0c.2.3-1.1.6-3 .6s-3.4-.3-3.4-.7c0-.7 5.6-.7 6.4.1zm3.6 0c0 .5-.2 1-.4 1-.3 0-.8-.5-1.1-1-.3-.6-.1-1 .4-1 .6 0 1.1.4 1.1 1zm8.4 0c.2.3-1.1.6-3 .6s-3.4-.3-3.4-.7c0-.7 5.6-.7 6.4.1zm3.6 0c0 .5-.2 1-.4 1-.3 0-.8-.5-1.1-1-.3-.6-.1-1 .4-1 .6 0 1.1.4 1.1 1zm8.4 0c.2.3-1.1.6-3 .6s-3.4-.3-3.4-.7c0-.7 5.6-.7 6.4.1zm16 0c.3.3-2.6.5-6.4.5-3.8 0-7.1-.3-7.4-.6-.3-.3 2.6-.5 6.4-.4 3.7 0 7.1.3 7.4.5zm5.6.2c0 1.1-1.2 1-3-.2-1.2-.7-1-.9.8-.7 1.2 0 2.2.5 2.2.9zm8 0c0 .4-.9.7-2 .5-2.9-.5-3.3-1.3-.5-1.3 1.4 0 2.5.4 2.5.8zm14.4-.2c.2.3-1.9.5-4.9.5-2.9 0-5.6-.2-5.9-.5-.2-.3 1.9-.5 4.9-.5 2.9 0 5.6.2 5.9.5zm3.6 0c0 .5-.2 1-.4 1-.3 0-.8-.5-1.1-1-.3-.6-.1-1 .4-1 .6 0 1.1.4 1.1 1zm8.4 0c.2.3-1.1.6-3 .6s-3.4-.3-3.4-.7c0-.7 5.6-.7 6.4.1zm3.6 0c0 .5-.2 1-.4 1-.3 0-.8-.5-1.1-1-.3-.6-.1-1 .4-1 .6 0 1.1.4 1.1 1zm10 0c0 .4-1.8.6-4 .6s-4-.3-4-.6c0-.4 1.8-.6 4-.6s4 .3 4 .6zm8 .2c0 .4-.9.7-2 .5-2.9-.5-3.3-1.3-.5-1.3 1.4 0 2.5.4 2.5.8zm6.6 0c.3.4-.1.5-1 .4-.8-.1-1.8-.5-2.2-.8-.3-.4.1-.5 1-.4.8.1 1.8.5 2.2.8zm3.4-.2c0 .5-.2 1-.4 1-.3 0-.8-.5-1.1-1-.3-.6-.1-1 .4-1 .6 0 1.1.4 1.1 1zm8.4 0c.2.3-1.1.6-3 .6s-3.4-.3-3.4-.7c0-.7 5.6-.7 6.4.1zm16 0c.3.3-2.6.5-6.4.5-3.8 0-7.1-.3-7.4-.6-.3-.3 2.6-.5 6.4-.4 3.7 0 7.1.3 7.4.5zm5.6.2c0 1.1-1.2 1-3-.2-1.2-.7-1-.9.8-.7 1.2 0 2.2.5 2.2.9zm8 0c0 .4-.9.7-2 .5-2.9-.5-3.3-1.3-.5-1.3 1.4 0 2.5.4 2.5.8z"/></svg>